<?xml version="1.0" encoding="iso-8859-1"?>
<!-- Uploaded to: SVG Repo, www.svgrepo.com, Generator: SVG Repo Mixer Tools -->
<svg height="800px" width="800px" version="1.1" id="Layer_1" xmlns="http://www.w3.org/2000/svg" xmlns:xlink="http://www.w3.org/1999/xlink" 
	 viewBox="0 0 512 512" xml:space="preserve">
<circle style="fill:#4AB8A1;" cx="256" cy="256" r="256"/>
<path style="fill:#E16B5A;" d="M412,280l-60-64l-60,127.252L172,280L52,400v10.62C98.752,472.204,172.72,512,256,512
	c141.384,0,256-114.616,256-256c0-44.752-11.512-86.8-31.696-123.404L412,280z"/>
<path style="fill:#F5F5F5;" d="M52,408c-2.048,0-4.092-0.78-5.656-2.344c-3.124-3.124-3.124-8.188,0-11.312l120-120
	c2.48-2.48,6.28-3.064,9.388-1.42l112.6,59.36l56.432-119.688c1.124-2.4,3.368-4.08,5.984-4.492
	c2.624-0.424,5.268,0.496,7.084,2.428l51.892,55.356L480.74,112.64c1.86-4.012,6.612-5.748,10.62-3.896
	c4.008,1.856,5.752,6.612,3.896,10.62l-76,164c-1.116,2.416-3.36,4.112-5.984,4.54c-2.616,0.408-5.288-0.492-7.104-2.424
	l-51.948-55.424L299.24,346.66c-0.924,1.976-2.628,3.484-4.7,4.176c-2.064,0.696-4.332,0.508-6.264-0.508l-114.78-60.504
	L57.664,405.652C56.096,407.22,54.048,408,52,408z"/>
<circle style="fill:#E16B5A;" cx="172" cy="280" r="16"/>
<path style="fill:#F5F5F5;" d="M172,264c8.84,0,16,7.16,16,16s-7.16,16-16,16s-16-7.16-16-16S163.16,264,172,264 M172,256
	c-13.236,0-24,10.764-24,24s10.764,24,24,24s24-10.764,24-24S185.236,256,172,256L172,256z"/>
<circle style="fill:#E16B5A;" cx="46.964" cy="404" r="16"/>
<path style="fill:#F5F5F5;" d="M46.964,388c8.84,0,16,7.16,16,16s-7.16,16-16,16s-16-7.16-16-16S38.124,388,46.964,388 M46.964,380
	c-13.236,0-24,10.764-24,24s10.764,24,24,24s24-10.764,24-24S60.2,380,46.964,380L46.964,380z"/>
<circle style="fill:#E16B5A;" cx="486.96" cy="116" r="16"/>
<path style="fill:#F5F5F5;" d="M486.96,100c8.844,0,16,7.16,16,16s-7.156,16-16,16c-8.836,0-16-7.16-16-16S478.124,100,486.96,100
	 M486.96,92c-13.236,0-24,10.764-24,24s10.764,24,24,24c13.24,0,24-10.764,24-24S500.2,92,486.96,92L486.96,92z"/>
<circle style="fill:#E16B5A;" cx="352" cy="216" r="16"/>
<path style="fill:#F5F5F5;" d="M352,200c8.84,0,16,7.16,16,16s-7.16,16-16,16s-16-7.16-16-16S343.16,200,352,200 M352,192
	c-13.236,0-24,10.764-24,24s10.764,24,24,24s24-10.764,24-24S365.236,192,352,192L352,192z"/>
</svg>