<?xml version="1.0" ?><!-- Uploaded to: SVG Repo, www.svgrepo.com, Generator: SVG Repo Mixer Tools -->
<svg width="800px" height="800px" viewBox="0 0 32 32" data-name="Layer 1" id="Layer_1" xmlns="http://www.w3.org/2000/svg" xmlns:xlink="http://www.w3.org/1999/xlink"><defs><style>.cls-1{fill:url(#linear-gradient);}.cls-2{fill:url(#linear-gradient-2);}.cls-3{fill:url(#linear-gradient-3);}.cls-4{fill:#577590;}</style><linearGradient gradientUnits="userSpaceOnUse" id="linear-gradient" x1="6.65" x2="27.27" y1="6.65" y2="27.27"><stop offset="0" stop-color="#f9dcc4"/><stop offset="0.32" stop-color="#f8d9c0"/><stop offset="0.64" stop-color="#f4cfb3"/><stop offset="0.98" stop-color="#eebf9f"/><stop offset="1" stop-color="#edbe9d"/></linearGradient><linearGradient gradientUnits="userSpaceOnUse" id="linear-gradient-2" x1="6" x2="12" y1="5" y2="5"><stop offset="0" stop-color="#f9dcc4"/><stop offset="1" stop-color="#edbe9d"/></linearGradient><linearGradient gradientUnits="userSpaceOnUse" id="linear-gradient-3" x1="11.76" x2="20.24" y1="11.76" y2="20.24"><stop offset="0" stop-color="#68d8d6"/><stop offset="1" stop-color="#18c9bc"/></linearGradient></defs><path class="cls-1" d="M23.5,2h-12a.47.47,0,0,0-.35.15l-5,5A.47.47,0,0,0,6,7.5v20A2.5,2.5,0,0,0,8.5,30h15A2.5,2.5,0,0,0,26,27.5V4.5A2.5,2.5,0,0,0,23.5,2Z"/><path class="cls-2" d="M11.69,2a.47.47,0,0,0-.54.11l-5,5A.47.47,0,0,0,6,7.69.5.5,0,0,0,6.5,8h3A2.5,2.5,0,0,0,12,5.5v-3A.5.5,0,0,0,11.69,2Z"/><circle class="cls-3" cx="16" cy="16" r="6"/><path class="cls-4" d="M18.5,15.5h-2v-2a.5.5,0,0,0-1,0v2h-2a.5.5,0,0,0,0,1h2v2a.5.5,0,0,0,1,0v-2h2a.5.5,0,0,0,0-1Z"/></svg>