<?xml version="1.0" encoding="iso-8859-1"?>
<!-- Uploaded to: SVG Repo, www.svgrepo.com, Generator: SVG Repo Mixer Tools -->
<svg height="800px" width="800px" version="1.1" id="Layer_1" xmlns="http://www.w3.org/2000/svg" xmlns:xlink="http://www.w3.org/1999/xlink" 
	 viewBox="0 0 512 512" xml:space="preserve">
<circle style="fill:#21D0C3;" cx="256" cy="256" r="256"/>
<path style="fill:#666666;" d="M90.551,42.577h271.326c8.605,0,15.581,6.975,15.581,15.581v358.751
	c0,8.605-6.975,15.581-15.581,15.581H90.551c-8.605,0-15.581-6.975-15.581-15.581V58.157C74.971,49.552,81.946,42.577,90.551,42.577
	z"/>
<path style="fill:#4D4D4D;" d="M293.124,395.988h16.842v36.499h-8.582c-4.543,0-8.257-3.714-8.257-8.257v-28.242H293.124z"/>
<path style="fill:#FFFFFF;" d="M93.909,70.173h264.609c1,0,1.809,0.81,1.809,1.809v322.194c0,1-0.81,1.809-1.809,1.809H93.909
	c-1,0-1.809-0.81-1.809-1.809V71.983C92.099,70.983,92.91,70.173,93.909,70.173z"/>
<circle style="fill:#ECF0F1;" cx="226.218" cy="413.582" r="10.161"/>
<path style="fill:#FAD24D;" d="M106.219,110.525h239.992v141.451H106.219V110.525z"/>
<path style="fill:#666666;" d="M303.418,182.131h125.7c4.367,0,7.909,3.541,7.909,7.909v234.539c0,4.367-3.541,7.909-7.909,7.909
	h-125.7c-4.367,0-7.909-3.541-7.909-7.909v-234.54C295.51,185.671,299.051,182.131,303.418,182.131z"/>
<path style="fill:#FFFFFF;" d="M309.307,205.567h113.924c0.43,0,0.779,0.348,0.779,0.779v201.927c0,0.43-0.348,0.779-0.779,0.779
	H309.307c-0.43,0-0.779-0.348-0.779-0.779V206.347C308.528,205.916,308.877,205.567,309.307,205.567z"/>
<g>
	<circle style="fill:#ECF0F1;" cx="366.265" cy="419.71" r="7.148"/>
	<path style="fill:#ECF0F1;" d="M347.144,195.036h38.251c0.965,0,1.747,0.782,1.747,1.747v0.003c0,0.965-0.782,1.747-1.747,1.747
		h-38.251c-0.965,0-1.747-0.782-1.747-1.747v-0.003C345.397,195.819,346.179,195.036,347.144,195.036z"/>
</g>
<path style="fill:#FF5B62;" d="M154.017,272.36c11.756,0,21.288,9.529,21.288,21.288c0,11.756-9.532,21.288-21.288,21.288
	s-21.288-9.532-21.288-21.288C132.73,281.889,142.261,272.36,154.017,272.36z"/>
<path style="fill:#DCE3DB;" d="M123.473,324.067h61.093v4.318h-61.093C123.473,328.385,123.473,324.067,123.473,324.067z
	 M123.473,351.215h41.037v4.318h-41.037C123.473,355.533,123.473,351.215,123.473,351.215z M123.473,337.639h61.093v4.318h-61.093
	C123.473,341.956,123.473,337.639,123.473,337.639z"/>
<path style="fill:#21D0C3;" d="M237.109,272.36c11.756,0,21.288,9.529,21.288,21.288c0,11.756-9.532,21.288-21.288,21.288
	s-21.288-9.532-21.288-21.288C215.82,281.889,225.353,272.36,237.109,272.36z"/>
<path style="fill:#DCE3DB;" d="M206.562,324.067h61.093v4.318h-61.093V324.067z M206.562,351.215h41.037v4.318h-41.037V351.215z
	 M206.562,337.639h61.093v4.318h-61.093V337.639z"/>
<path style="fill:#21D0C3;" d="M360.33,101.164H92.099V71.983c0-0.997,0.813-1.809,1.809-1.809H358.52
	c0.999,0,1.809,0.813,1.809,1.809v29.181H360.33z"/>
<g>
	<path style="fill:#FFFFFF;" d="M111.978,78.989c3.855,0,6.977,3.121,6.977,6.977s-3.121,6.977-6.977,6.977
		c-3.853,0-6.977-3.121-6.977-6.977S108.126,78.989,111.978,78.989z"/>
	<path style="fill:#FFFFFF;" d="M131.62,78.989c3.855,0,6.977,3.121,6.977,6.977s-3.121,6.977-6.977,6.977
		c-3.853,0-6.977-3.121-6.977-6.977S127.766,78.989,131.62,78.989z"/>
	<path style="fill:#FFFFFF;" d="M151.261,78.989c3.855,0,6.977,3.121,6.977,6.977s-3.121,6.977-6.977,6.977
		c-3.853,0-6.977-3.121-6.977-6.977S147.408,78.989,151.261,78.989z"/>
	<path style="fill:#FFFFFF;" d="M190.412,80.548h159.512c1.175,0,2.133,1.265,2.133,2.812v5.217c0,1.55-0.96,2.812-2.133,2.812
		H190.412c-1.175,0-2.133-1.265-2.133-2.812v-5.217C188.279,81.811,189.236,80.548,190.412,80.548z"/>
</g>
<path style="fill:#21D0C3;" d="M424.011,219.105H308.528v-12.758c0-0.43,0.349-0.776,0.779-0.776h113.927
	c0.43,0,0.779,0.346,0.779,0.776v12.758H424.011z"/>
<g>
	<path style="fill:#FFFFFF;" d="M316.685,207.857c2.204,0,3.989,1.784,3.989,3.989c0,2.204-1.784,3.989-3.989,3.989
		c-2.204,0-3.989-1.784-3.989-3.989C312.696,209.644,314.483,207.857,316.685,207.857z"/>
	<path style="fill:#FFFFFF;" d="M327.913,207.857c2.206,0,3.989,1.784,3.989,3.989c0,2.204-1.783,3.989-3.989,3.989
		c-2.201,0-3.989-1.784-3.989-3.989C323.922,209.644,325.709,207.857,327.913,207.857z"/>
	<path style="fill:#FFFFFF;" d="M339.139,207.857c2.204,0,3.987,1.784,3.987,3.989c0,2.204-1.784,3.989-3.987,3.989
		s-3.989-1.784-3.989-3.989C335.149,209.644,336.936,207.857,339.139,207.857z"/>
	<path style="fill:#FFFFFF;" d="M355.357,208.374h64.217c0.86,0,1.558,0.698,1.558,1.558v4.171c0,0.86-0.698,1.558-1.558,1.558
		h-64.217c-0.86,0-1.558-0.698-1.558-1.558v-4.171C353.799,209.072,354.497,208.374,355.357,208.374z"/>
</g>
<path style="fill:#FAD24D;" d="M314.125,223.478h104.285v61.465H314.125V223.478z"/>
<path style="fill:#FF5B62;" d="M369.335,297.551c10.689,0,19.355,8.664,19.355,19.355s-8.666,19.358-19.355,19.358
	c-10.691,0-19.355-8.666-19.355-19.358S358.647,297.551,369.335,297.551z"/>
<path style="fill:#DCE3DB;" d="M335.739,350.363h67.188v4.748h-67.188V350.363z M335.739,380.222h45.132v4.751h-45.132V380.222z
	 M335.739,365.293h67.188v4.748h-67.188V365.293z"/>
</svg>