<?xml version="1.0" encoding="iso-8859-1"?>
<!-- Uploaded to: SVG Repo, www.svgrepo.com, Generator: SVG Repo Mixer Tools -->
<svg height="800px" width="800px" version="1.1" id="Layer_1" xmlns="http://www.w3.org/2000/svg" xmlns:xlink="http://www.w3.org/1999/xlink" 
	 viewBox="0 0 504.123 504.123" xml:space="preserve">
<circle style="fill:#99A8C1;" cx="252.062" cy="252.062" r="252.062"/>
<path style="fill:#84919B;" d="M73.83,73.823c98.43-98.43,258.032-98.43,356.462,0c98.43,98.438,98.446,258.032,0,356.478"/>
<polygon points="358.4,216.615 326.892,216.615 326.892,129.969 405.662,129.969 405.662,161.477 358.4,161.477 "/>
<polygon points="295.385,263.877 263.877,263.877 263.877,185.108 350.523,185.108 350.523,216.615 295.385,216.615 "/>
<polygon points="240.246,319.015 208.738,319.015 208.738,232.369 295.385,232.369 295.385,263.877 240.246,263.877 "/>
<polygon points="185.108,382.031 98.462,382.031 98.462,350.523 153.6,350.523 153.6,287.508 240.246,287.508 240.246,319.015 
	185.108,319.015 "/>
<path style="fill:#1D2321;" d="M323.986,321.843c3.088,3.08,7.018,3.08,10.098,0l47.947-48.987v30.562
	c0,6.522,5.293,11.815,11.815,11.815s11.815-5.293,11.815-11.815v-63.173h-63.244c-6.514,0-11.815,5.293-11.815,11.815
	s5.301,11.815,11.815,11.815h30.586l-49.018,47.915C320.914,314.872,320.914,318.771,323.986,321.843z"/>
<g>
	<circle style="fill:#84919B;" cx="309.335" cy="336.502" r="7.136"/>
	<circle style="fill:#84919B;" cx="287.429" cy="358.4" r="7.136"/>
	<circle style="fill:#84919B;" cx="265.531" cy="380.314" r="7.136"/>
</g>
</svg>