<?xml version="1.0" encoding="iso-8859-1"?>
<!-- Uploaded to: SVG Repo, www.svgrepo.com, Generator: SVG Repo Mixer Tools -->
<svg height="800px" width="800px" version="1.1" id="Layer_1" xmlns="http://www.w3.org/2000/svg" xmlns:xlink="http://www.w3.org/1999/xlink" 
	 viewBox="0 0 512 512" xml:space="preserve">
<circle style="fill:#FF5B62;" cx="256" cy="256" r="256"/>
<path style="fill:#FAD24D;" d="M369.749,430.031l-19.94-85.46c0,0,68.235-65.651,60.586-149.807
	c-7.654-84.157-92.45-137.073-178.521-114.129c-86.071,22.941-100.327,91.892-100.731,103.204
	c-0.406,11.313,10.196,40.242,2.542,60.009c-7.651,19.767-35.06,50.684-32.513,59.93c2.555,9.241,26.138,10.836,26.138,10.836
	s0.278,8.942-2.859,10.841c-3.137,1.896-1.366,9.328,3.793,13.462c5.16,4.134,13.734,6.94,13.734,6.94s-9.886,2.233-8.606,9.244
	c1.277,7.016,4.782,10.523,12.113,10.838c7.334,0.317,9.249-3.179,10.52,0.646c1.274,3.82,2.075,4.139,2.075,4.139
	s-7.326,18.97-0.949,32.993c6.382,14.028,16.257,14.039,27.738,11.163c11.479-2.874,33.79-9.249,33.79-9.249l6.109,31.106
	c6.387,45.273-24.444,68.547-25.094,69.032c18.123,4.068,36.969,6.23,56.321,6.23c57.014,0,109.665-18.645,152.211-50.16
	c-4.102-1.978-37-30.348-38.461-31.809L369.749,430.031z"/>
<g>
	<path style="fill:#EDB937;" d="M159.24,407.649c6.351,10.062,15.347,9.805,25.632,7.229c11.479-2.874,33.79-9.249,33.79-9.249
		l6.109,31.106c2.18,15.45,0.021,28.334-3.788,38.629l0.003-0.005c21.312-30.409,5.595-53.651,8.402-65.19
		c2.807-11.541,47.408-22.455,56.762-29.629c9.359-7.174,16.061-26.975,16.061-26.975s-9.357,14.345-19.334,23.077
		c-9.98,8.732-87.482,31.497-102.297,36.486C166.512,417.864,159.874,408.597,159.24,407.649L159.24,407.649L159.24,407.649z"/>
	<path style="fill:#EDB937;" d="M210.708,87.729c53.606-19.639,117.096-9.046,155.604,30.338
		c45.892,46.93,56.586,132.331-23.555,222.698l26.99,89.266l-19.94-85.46c0,0,68.235-65.651,60.586-149.807
		c-7.654-84.157-92.45-137.073-178.521-114.129c-7.607,2.028-14.641,4.419-21.165,7.092L210.708,87.729L210.708,87.729z"/>
</g>
<g>
	<path style="fill:#FFFFFF;" d="M299.795,267.013v-9.726l-4.223-0.441c-0.367-1.26-0.863-2.46-1.474-3.591l2.804-3.224l-6.878-6.875
		l-3.3,2.676c-1.126-0.618-2.319-1.123-3.573-1.498l-0.296-4.254h-9.726l-0.441,4.223c-1.257,0.367-2.457,0.863-3.588,1.474
		l-3.224-2.804l-6.878,6.878l2.678,3.303c-0.619,1.126-1.125,2.321-1.5,3.578l-4.26,0.296v9.723l4.223,0.44
		c0.367,1.257,0.863,2.46,1.474,3.591l-2.804,3.221l6.878,6.878l3.3-2.678c1.126,0.617,2.324,1.123,3.578,1.498l0.296,4.26h9.726
		l0.441-4.223c1.257-0.37,2.457-0.866,3.588-1.477l3.221,2.804l6.878-6.875l-2.678-3.303c0.617-1.126,1.123-2.324,1.498-3.578
		L299.795,267.013z M277.855,271.487c-5.231,0-9.47-4.239-9.47-9.47s4.239-9.469,9.47-9.469c5.23,0,9.469,4.239,9.469,9.469
		C287.325,267.247,283.086,271.487,277.855,271.487z"/>
	<path style="fill:#FFFFFF;" d="M380.869,223.952v-15.919l-11.62-1.16c-0.791-2.937-1.953-5.731-3.438-8.307l7.389-9.036
		l-11.253-11.25l-9.033,7.395c-2.58-1.484-5.368-2.651-8.307-3.44l-1.16-11.617h-15.919l-1.162,11.617
		c-2.94,0.789-5.729,1.956-8.31,3.441l-9.036-7.395l-11.25,11.25l7.392,9.036c-1.481,2.576-2.646,5.367-3.438,8.307l-11.617,1.16
		v15.919l11.617,1.162c0.789,2.937,1.956,5.726,3.438,8.307l-7.392,9.039l11.25,11.25l9.036-7.392
		c2.578,1.484,5.369,2.647,8.307,3.441l1.162,11.617h15.919l1.16-11.617c2.94-0.794,5.729-1.956,8.31-3.441l9.033,7.389
		l11.253-11.247l-7.389-9.039c1.484-2.581,2.646-5.37,3.438-8.31L380.869,223.952z M335.485,243.466
		c-15.174,0-27.47-12.299-27.47-27.47c0-15.173,12.296-27.473,27.47-27.473s27.473,12.299,27.473,27.473
		C362.958,231.167,350.659,243.466,335.485,243.466z"/>
	<path style="fill:#FFFFFF;" d="M285.964,205.62l4.139-15.769l-9.364-3.678c0.317-3.536,0.296-7.095-0.055-10.631l9.328-3.772
		l-4.299-15.725l-9.934,1.498c-1.477-3.184-3.272-6.261-5.378-9.18l6.19-7.927L265,128.966l-7.861,6.272
		c-2.943-2.074-6.036-3.838-9.236-5.28l1.395-9.949l-15.772-4.137l-3.675,9.362c-3.535-0.314-7.097-0.298-10.633,0.058l-3.77-9.328
		l-15.73,4.3l1.5,9.934v0.014c-3.184,1.477-6.261,3.269-9.18,5.378l-7.925-6.196l-11.471,11.591l6.274,7.861
		c-2.075,2.941-3.836,6.036-5.278,9.236l-9.952-1.395l-4.139,15.772l9.367,3.672c-0.314,3.535-0.298,7.097,0.058,10.633
		l-9.328,3.772l4.302,15.727l9.934-1.503c1.476,3.184,3.271,6.264,5.371,9.183l-6.19,7.925l11.589,11.47l7.861-6.274
		c2.941,2.077,6.036,3.834,9.236,5.28l-1.398,9.949l15.772,4.137l3.678-9.362c3.536,0.312,7.095,0.296,10.631-0.058l3.772,9.328
		l15.725-4.305l-1.5-9.934c3.187-1.48,6.264-3.272,9.183-5.378l7.927,6.19l11.471-11.588l-6.274-7.864
		c2.074-2.938,3.835-6.036,5.28-9.236L285.964,205.62z M224.823,217.308c-19.971,0-36.16-16.189-36.16-36.16
		s16.189-36.16,36.16-36.16c19.972,0,36.16,16.189,36.16,36.16S244.794,217.308,224.823,217.308z"/>
</g>
</svg>